<?xml version="1.0" encoding="UTF-8"?>
<svg width="418px" height="86px" viewBox="0 0 418 86" version="1.1" xmlns="http://www.w3.org/2000/svg" xmlns:xlink="http://www.w3.org/1999/xlink">
    <title>Logo / transparent</title>
    <g id="Logo-/-transparent" stroke="none" stroke-width="1" fill="none" fill-rule="evenodd">
        <g id="Group-2" transform="translate(232.000000, 27.000000)" fill="#231F20" fill-rule="nonzero">
            <path d="M-7.10542736e-15,13.1882703 L0.503718583,13.1882703 C1.38487919,13.1882703 1.40430635,12.6942652 1.40430635,10.3352522 L1.40430635,4.00338381 C1.40430635,1.64575847 1.38349154,1.14897809 0.482903766,1.14897809 L-7.10542736e-15,1.14897809 L-7.10542736e-15,0.614731032 L5.67828221,0.614731032 L5.67828221,1.14897809 L5.19954141,1.14897809 C4.3003413,1.14897809 4.27952648,1.64437082 4.27952648,4.00338381 L4.27952648,6.63437712 L8.91429251,6.63437712 L8.91429251,4.00338381 C8.91429251,1.64575847 8.89486534,1.14897809 7.99427757,1.14897809 L7.51553677,1.14897809 L7.51553677,0.614731032 L13.193819,0.614731032 L13.193819,1.14897809 L12.7136905,1.14897809 C11.8117151,1.14897809 11.7922879,1.64437082 11.7922879,4.00338381 L11.7922879,10.3352522 C11.7922879,12.6928775 11.8117151,13.1882703 12.6942634,13.1882703 L13.193819,13.1882703 L13.193819,13.7266803 L7.51553677,13.7266803 L7.51553677,13.1882703 L7.99427757,13.1882703 C8.89486535,13.1882703 8.91429251,12.6942652 8.91429251,10.3352522 L8.91429251,7.27269828 L4.27952648,7.27269828 L4.27952648,10.3352522 C4.27952648,12.6928775 4.3003413,13.1882703 5.19954141,13.1882703 L5.67828221,13.1882703 L5.67828221,13.7266803 L-7.10542736e-15,13.7266803 L-7.10542736e-15,13.1882703 Z" id="path5"></path>
            <path d="M17.2693603,9.10162718 C17.2693603,5.43544346 18.0811381,4.82903836 19.0566592,4.82903836 C20.0349557,4.82903836 20.8481212,5.43683111 20.8481212,9.10162718 C20.8481212,12.3057219 20.3679928,13.4005814 19.0566592,13.4005814 C17.7481011,13.4005814 17.2693603,12.3057219 17.2693603,9.10162718 M14.5065401,9.10162718 C14.5065401,11.987949 16.1287083,14.0264137 19.0566592,14.0264137 C21.9873856,14.0264137 23.6095537,11.987949 23.6095537,9.10162718 C23.6095537,6.23889553 21.9873856,4.18932954 19.0566592,4.18932954 C16.1287083,4.18932954 14.5065401,6.23889553 14.5065401,9.10162718" id="path7"></path>
            <path d="M28.1444086,7.44199216 C28.1444086,6.4054141 28.1985271,4.82903836 29.61671,4.82903836 C30.9710608,4.82903836 30.9710608,6.62743885 30.9710608,7.55439219 C30.9710608,8.46191836 30.8211941,9.83708417 29.6069964,9.83708417 C28.1985271,9.83708417 28.1444086,8.49938504 28.1444086,7.44199216 M28.8535,11.7881267 C27.9140579,11.7881267 27.5088628,11.6521365 27.5088628,11.2136376 C27.5088628,10.8209314 27.7641912,10.4740177 28.3733716,10.4740177 C30.7656879,10.4740177 33.6311945,10.4740177 33.6311945,7.26437235 C33.6311945,6.32076716 33.2037969,5.65191759 32.3337375,4.91229764 C32.6501227,4.79989761 32.8721475,4.72773956 33.1496784,4.72773956 C33.6076043,4.72773956 33.2953821,5.70326082 34.4027304,5.70326082 C35.0285625,5.70326082 35.3407848,5.20925574 35.3407848,4.65419386 C35.3407848,4.04917641 35.0091354,3.49686487 34.3458365,3.49686487 C33.4619006,3.49133923 32.7236684,4.41274195 31.7273325,4.41274195 C31.3027102,4.40996664 30.5089718,4.18932954 29.5112483,4.18932954 C27.4963739,4.18932954 25.4842749,5.1065693 25.4842749,7.40452548 C25.4842749,8.75887647 26.3349071,9.79822984 27.5740826,10.1604077 L27.5740826,10.1978744 L27.5740826,10.1770596 C26.6832084,10.4518152 26.1323095,11.2053117 26.1323095,12.1447539 C26.1323095,12.831643 26.4653466,13.446374 27.2382702,13.723905 L27.2382702,13.764147 C26.2960528,13.8612828 25.0860181,14.5176435 25.0860181,15.6430314 C25.0860181,17.6565184 27.6961962,18.0200839 29.2281667,18.0200839 C31.4387004,18.0200839 34.363876,17.1819405 34.363876,14.5051546 C34.363876,12.1822206 32.4183844,11.786739 31.0376682,11.786739 L28.8535,11.786739 L28.8535,11.7881267 Z M29.7971051,13.9833964 C30.8864139,13.9833964 32.6751005,14.0208631 32.6751005,15.5098166 C32.6751005,16.9252244 30.8850262,17.388701 29.7069075,17.388701 C28.5634802,17.388701 26.7734059,17.1305973 26.7734059,15.6680092 C26.7734059,14.0208631 28.5634802,13.9833964 29.7971051,13.9833964" id="path9"></path>
            <path d="M38.894568,8.60623445 C38.894568,6.78979445 38.966726,4.82903836 40.4945336,4.82903836 C41.8558227,4.82903836 41.8558227,6.60523637 41.8558227,8.60623445 L38.894568,8.60623445 Z M44.7324305,9.14048151 C44.7324305,6.27636221 43.645897,4.19071719 40.5680793,4.19071719 C37.637353,4.19071719 36.0151849,6.24028319 36.0151849,9.10579014 C36.0151849,11.9893366 37.637353,14.0278014 40.5680793,14.0278014 C42.8785241,14.0278014 44.3175218,12.8455196 44.5561983,10.5725412 L43.7388698,10.5628276 C43.7000155,12.0281909 42.7591858,13.4019691 41.1578325,13.4019691 C39.0569236,13.4019691 38.894568,11.4550895 38.894568,9.60257052 L38.894568,9.14186916 L44.7324305,9.14186916 L44.7324305,9.14048151 Z" id="path11"></path>
            <path d="M46.2616257,10.7126943 L46.8527665,10.7126943 C47.2218826,12.2849071 48.0891667,13.4019691 49.8237348,13.4019691 C50.7631769,13.4019691 51.6637647,12.8441319 51.6637647,11.8922008 C51.6637647,10.7126943 50.7423621,10.4518152 48.9744903,10.0438447 C47.6104259,9.7288471 46.2616257,9.26814574 46.2616257,7.36567115 C46.2616257,5.16207548 47.8685296,4.19071719 49.8986682,4.20043078 C50.7284856,4.20043078 51.3168511,4.49600123 51.9260314,4.49600123 C52.4228117,4.49600123 52.7003426,4.34752218 52.9209797,4.19071719 L53.031992,4.19071719 L53.031992,7.15197232 L52.4408512,7.15197232 C52.2562932,5.93777446 51.2599572,4.8276507 49.9694385,4.8276507 C49.0674631,4.8276507 48.1460605,5.16207548 48.1460605,6.29440172 C48.1460605,7.23384395 48.6275766,7.36567115 50.7631769,7.86661449 C52.3992216,8.23434299 53.6522736,8.7547135 53.6522736,10.89864 C53.6522736,13.1230505 51.8302832,14.0264137 49.8958929,14.0236384 C49.0313841,14.0236384 48.0891667,13.7252926 47.296816,13.7252926 C46.9276999,13.7252926 46.5558085,13.9015248 46.3726381,14.0264137 L46.2616257,14.0264137 L46.2616257,10.7126943 L46.2616257,10.7126943 Z" id="path13"></path>
            <path d="M63.2895341,10.6502498 C63.0300427,12.9273912 61.7589512,14.0250261 59.4790348,14.0250261 C56.4914147,14.0250261 55.1259627,11.786739 55.1259627,9.01420493 C55.1259627,5.53119163 57.6154148,4.19071719 59.8259485,4.19071719 C62.3709068,4.19071719 63.1299538,5.56865831 63.1299538,6.21946837 C63.1299538,7.10340441 62.6664772,7.71397248 61.703445,7.71397248 C60.9499486,7.71397248 60.4698201,7.17556245 60.4698201,6.43871781 C60.4698201,5.90169544 60.7306992,5.81011023 60.7306992,5.58669782 C60.7306992,5.180115 60.0979287,4.8276507 59.6774694,4.8276507 C58.0913803,4.8276507 58.0011828,7.06732539 58.0011828,9.23206672 C58.0011828,10.6946548 57.9817556,13.4019691 60.0271584,13.4019691 C61.703445,13.4019691 62.3473167,12.1503046 62.4763686,10.6405362 L63.2895341,10.6502498 Z" id="path15"></path>
            <path d="M64.3011342,13.1882703 L64.9283541,13.1882703 C65.4806405,13.1882703 65.6638109,12.9509813 65.6638109,11.9407687 L65.6638109,1.7859116 C65.6638109,0.775698977 65.4806405,0.539797678 64.9283541,0.539797678 L64.3011342,0.539797678 L64.3011342,2.22044605e-14 L68.3211693,2.22044605e-14 L68.3211693,5.73517688 L68.358636,5.73517688 C68.892883,4.83597663 69.8670164,4.19210485 71.2310808,4.19210485 C73.0391946,4.19210485 73.9245182,5.27170021 73.9245182,6.8064463 L73.9245182,11.9421563 C73.9245182,12.9537566 74.1090762,13.1896579 74.6627504,13.1896579 L75.0693331,13.1896579 L75.0693331,13.7280679 L70.1251202,13.7280679 L70.1251202,13.1896579 L70.5317029,13.1896579 C71.0812141,13.1896579 71.2657722,12.952369 71.2657722,11.9421563 L71.2657722,7.28657483 C71.2657722,6.38182397 71.2657722,5.32720639 70.0862658,5.32720639 C68.3211693,5.32720639 68.3211693,7.36012053 68.3211693,8.50632331 L68.3211693,11.943544 C68.3211693,12.9551443 68.507115,13.1910456 69.0594015,13.1910456 L69.463209,13.1910456 L69.463209,13.7294556 L64.2997466,13.7294556 L64.2997466,13.1882703 L64.3011342,13.1882703 Z" id="path17"></path>
            <path d="M79.0616151,9.10162718 C79.0616151,5.43544346 79.8706177,4.82903836 80.8475265,4.82903836 C81.8272106,4.82903836 82.6362131,5.43683111 82.6362131,9.10162718 C82.6362131,12.3057219 82.15886,13.4005814 80.8475265,13.4005814 C79.5389683,13.4005814 79.0616151,12.3057219 79.0616151,9.10162718 M76.298795,9.10162718 C76.298795,11.987949 77.9181878,14.0264137 80.8475265,14.0264137 C83.7782528,14.0264137 85.4004209,11.987949 85.4004209,9.10162718 C85.4004209,6.23889553 83.7782528,4.18932954 80.8475265,4.18932954 C77.9181878,4.18932954 76.298795,6.23889553 76.298795,9.10162718" id="path19"></path>
            <path d="M89.6397054,9.10162718 C89.6397054,5.43544346 90.4514833,4.82903836 91.428392,4.82903836 C92.4066885,4.82903836 93.215691,5.43683111 93.215691,9.10162718 C93.215691,12.3057219 92.7341749,13.4005814 91.428392,13.4005814 C90.1184462,13.4005814 89.6397054,12.3057219 89.6397054,9.10162718 M86.8768853,9.10162718 C86.8768853,11.987949 88.4962781,14.0264137 91.428392,14.0264137 C94.3549554,14.0264137 95.9757358,11.987949 95.9757358,9.10162718 C95.9757358,6.23889553 94.3549554,4.18932954 91.428392,4.18932954 C88.4962781,4.18932954 86.8768853,6.23889553 86.8768853,9.10162718" id="path21"></path>
            <path d="M96.9457063,13.1882703 L97.5715385,13.1882703 C98.123825,13.1882703 98.3097707,12.9509813 98.3097707,11.9449317 L98.3097707,1.78868691 C98.3097707,0.777086632 98.123825,0.539797678 97.5715385,0.539797678 L96.9457063,0.539797678 L96.9457063,1.687539e-14 L100.969904,1.687539e-14 L100.969904,11.9449317 C100.969904,12.952369 101.15585,13.1882703 101.703974,13.1882703 L102.333969,13.1882703 L102.333969,13.7266803 L96.9443187,13.7266803 L96.9443187,13.1882703 L96.9457063,13.1882703 Z" id="path23"></path>
        </g>
        <g id="Group" transform="translate(232.000000, 47.000000)" fill="#231F20" fill-rule="nonzero">
            <path d="M9.59840618,5.02469767 C8.91845547,5.02469767 8.71169495,5.59641141 8.41612454,6.30133999 L6.17089956,11.7492723 C5.89336866,12.4236725 5.63526492,13.1327641 5.41601551,13.8501816 L4.18100301,13.8501816 C4.01448447,13.3728283 3.84935358,12.8580085 3.66340788,12.3862059 L1.21419769,6.24722146 C0.900587771,5.44932001 0.843693936,5.02469767 0.312222263,5.02469767 L8.8817842e-15,5.02469767 L8.8817842e-15,4.48906295 L5.04412411,4.48906295 L5.04412411,5.02469767 L4.41829193,5.02469767 C4.10606967,5.02469767 3.79245975,5.10101868 3.79245975,5.4312805 C3.79245975,5.52286571 3.84935358,5.74627811 3.96036594,6.05850042 L5.76431679,10.7654252 L5.80039581,10.7654252 L7.62654913,6.15286094 C7.71674667,5.89198186 7.77225285,5.68938427 7.77225285,5.52425336 C7.77225285,5.21203105 7.45864294,5.02608532 7.12699351,5.02608532 L6.68294407,5.02608532 L6.68294407,4.49045061 L9.59701852,4.49045061 L9.59701852,5.02469767 L9.59840618,5.02469767 Z" id="path25"></path>
            <path d="M15.9399872,11.21225 C15.9399872,12.8025023 14.9825056,13.1188875 14.5037648,13.1188875 C13.5629351,13.1188875 13.2354486,12.2654799 13.2354486,11.43705 C13.2354486,9.79406687 13.8959722,8.80050611 15.3890884,8.80050611 C15.5528316,8.80050611 15.7013107,8.81993327 15.9399872,8.87682712 L15.9399872,11.21225 Z M19.6505754,11.1775586 C19.6505754,12.0212527 19.6505754,12.9912233 19.0608222,12.9912233 C18.7638641,12.9912233 18.595958,12.7941763 18.595958,12.3001713 L18.595958,6.79812038 C18.595958,4.64586794 16.5824713,4.18932954 14.8187624,4.18932954 C13.5185301,4.18932954 11.1067866,4.57232224 11.1067866,6.31521654 C11.1067866,7.15058467 11.6562978,7.68899469 12.4875028,7.68899469 C13.2063079,7.68899469 13.8709944,7.22274271 13.8709944,6.44565608 C13.8709944,5.92389791 13.4644116,5.58947313 13.4644116,5.38410024 C13.4644116,4.90258406 14.3067179,4.82903836 14.7105254,4.82903836 C15.6804959,4.82903836 15.9385996,5.51592743 15.9385996,6.33741901 L15.9385996,8.28568621 C15.6624563,8.26625905 15.4043526,8.26625905 15.1309847,8.26625905 C13.1244363,8.26625905 10.4726285,9.07664939 10.4726285,11.4509266 C10.4726285,13.145253 11.7784114,14.0208631 13.3589499,14.0208631 C14.3719377,14.0208631 15.5167526,13.7058655 16.0482243,12.7941763 C16.3604466,13.6461963 17.3234788,14.0208631 18.061711,14.0208631 C20.3277508,14.0208631 20.3471779,12.4000824 20.3471779,11.1775586 L19.6505754,11.1775586 L19.6505754,11.1775586 Z" id="path27"></path>
            <path d="M21.0132521,13.1868826 L21.636309,13.1868826 C22.1899831,13.1868826 22.3731535,12.9495937 22.3731535,11.939381 L22.3731535,6.28052517 C22.3731535,5.26476193 22.1899831,5.02608532 21.636309,5.02608532 L21.0132521,5.02608532 L21.0132521,4.49045061 L22.9476425,4.49045061 C23.6317561,4.49045061 24.2964426,4.36139872 24.9250501,4.18932954 L24.9250501,5.82259912 L24.9597415,5.82259912 C25.696586,4.77908279 26.5791343,4.18932954 27.9404234,4.18932954 C29.7527001,4.18932954 30.6366361,5.2689249 30.6366361,6.80367099 L30.6366361,11.939381 C30.6366361,12.9509813 30.8225818,13.1868826 31.3734806,13.1868826 L31.7772881,13.1868826 L31.7772881,13.7252926 L26.8386257,13.7252926 L26.8386257,13.1868826 L27.2438208,13.1868826 C27.793332,13.1868826 27.9765024,12.9495937 27.9765024,11.939381 L27.9765024,7.28379952 C27.9765024,6.37904866 27.9765024,5.32443108 26.7997714,5.32443108 C25.0305119,5.32443108 25.0305119,7.35734522 25.0305119,8.51187393 L25.0305119,11.9407687 C25.0305119,12.952369 25.2178452,13.1882703 25.7673564,13.1882703 L26.1725515,13.1882703 L26.1725515,13.7266803 L21.0104768,13.7266803 L21.0104768,13.1868826 L21.0132521,13.1868826 Z" id="path29"></path>
            <path d="M44.5006922,8.8435234 L40.2794472,8.8435234 L42.4705536,3.57876147 L44.5006922,8.8435234 Z M44.4632255,13.7225173 L50.3621448,13.7225173 L50.3621448,13.185495 L49.9763768,13.185495 C49.2575718,13.185495 48.963389,12.4514256 48.7399767,11.8616724 L45.3305096,3.04590207 C44.9988601,2.20359566 44.7213292,1.35435099 44.485428,0.43711123 L42.8438327,0.43711123 C42.6204203,1.22391145 42.3442771,1.92467707 42.051482,2.62266738 L38.4546815,11.252492 C37.8455012,12.7109171 37.4985876,13.185495 36.5577578,13.185495 L36.5577578,13.7225173 L40.5403262,13.7225173 L40.5403262,13.185495 L40.0407706,13.185495 C39.4135508,13.1688431 39.043047,12.912127 39.043047,12.4125713 C39.043047,11.9574205 39.267847,11.2871833 39.5259508,10.6613511 L40.0213434,9.47629395 L44.7407564,9.47629395 L45.2194972,10.7182449 C45.5511466,11.5661019 45.8453294,12.2904577 45.8453294,12.634596 C45.8453294,13.1688431 45.2944305,13.1688431 44.4632255,13.1841073 L44.4632255,13.7225173 L44.4632255,13.7225173 Z" id="path31"></path>
            <path d="M50.5453152,13.1868826 L51.1711473,13.1868826 C51.7234338,13.1868826 51.9093795,12.9495937 51.9093795,11.939381 L51.9093795,6.28052517 C51.9093795,5.26476193 51.7234338,5.02608532 51.1711473,5.02608532 L50.5453152,5.02608532 L50.5453152,4.49045061 L52.4810932,4.49045061 C53.1638192,4.49045061 53.831281,4.36139872 54.4598885,4.18932954 L54.4598885,5.82259912 L54.4945799,5.82259912 C55.2314244,4.77908279 56.112585,4.18932954 57.4752617,4.18932954 C58.7297014,4.18932954 59.6538793,4.64864324 60.0035682,5.82259912 C60.7945313,4.68472227 61.5535783,4.18932954 63.0799983,4.18932954 C64.8853368,4.18932954 65.7734356,5.2689249 65.7734356,6.80367099 L65.7734356,11.939381 C65.7734356,12.9509813 65.9579937,13.1868826 66.5102802,13.1868826 L66.916863,13.1868826 L66.916863,13.7252926 L61.97265,13.7252926 L61.97265,13.1868826 L62.3764574,13.1868826 C62.9287439,13.1868826 63.1146896,12.9495937 63.1146896,11.939381 L63.1146896,7.28379952 C63.1146896,6.37904866 63.1146896,5.32443108 61.9351833,5.32443108 C60.1673115,5.32443108 60.1673115,7.35734522 60.1673115,8.503548 L60.1673115,11.9407687 C60.1673115,12.952369 60.3518695,13.1882703 60.9055437,13.1882703 L61.3121264,13.1882703 L61.3121264,13.7266803 L56.3679134,13.7266803 L56.3679134,13.1882703 L56.7744962,13.1882703 C57.3281704,13.1882703 57.5113408,12.9509813 57.5113408,11.9407687 L57.5113408,7.28518717 C57.5113408,6.38043631 57.5113408,5.32581874 56.3318344,5.32581874 C54.5653502,5.32581874 54.5653502,7.35873287 54.5653502,8.51326158 L54.5653502,11.9421563 C54.5653502,12.9537566 54.7499083,13.1896579 55.3021948,13.1896579 L55.7060022,13.1896579 L55.7060022,13.7280679 L50.5425399,13.7280679 L50.5425399,13.1868826 L50.5453152,13.1868826 Z" id="path33"></path>
            <path d="M67.9992335,10.7113066 L68.5917619,10.7113066 C68.9622657,12.2835194 69.8295497,13.4005814 71.5613426,13.4005814 C72.5021723,13.4005814 73.4041477,12.8427442 73.4041477,11.8908131 C73.4041477,10.7113066 72.4827452,10.4504275 70.7134857,10.0424571 C69.3480336,9.72745945 68.0006211,9.26675809 68.0006211,7.36428349 C68.0006211,5.16068783 69.6089127,4.18932954 71.6376636,4.19904312 C72.4688686,4.19904312 73.0544588,4.49461357 73.6650268,4.49461357 C74.1631948,4.49461357 74.4379503,4.34613452 74.664138,4.18932954 L74.7723751,4.18932954 L74.7723751,7.15058467 L74.1798466,7.15058467 C73.9994515,5.93638681 73.0003403,4.82626305 71.7070463,4.82626305 C70.8064585,4.82626305 69.8864436,5.16068783 69.8864436,6.29301406 C69.8864436,7.2324563 70.3637967,7.36428349 72.5021723,7.86522684 C74.1423799,8.23295534 75.391269,8.75332585 75.391269,10.8972524 C75.391269,13.1216628 73.5692786,14.0250261 71.6348883,14.0222507 C70.7703795,14.0222507 69.8295497,13.723905 69.0358114,13.723905 C68.66392,13.723905 68.2989668,13.9001371 68.1116335,14.0250261 L68.0006211,14.0250261 L68.0006211,10.7113066 L67.9992335,10.7113066 Z" id="path35"></path>
            <path d="M82.4225143,5.02469767 L80.4950622,5.02469767 L80.4950622,10.9735734 C80.4950622,12.0823095 80.4950622,12.8926998 81.3415315,12.8926998 C82.0367464,12.8926998 82.1477587,12.2099737 82.1685736,11.5647143 L82.1685736,10.9735734 L82.8610132,10.9735734 L82.8610132,11.3773809 C82.8610132,13.2201863 82.1324945,14.0250261 80.4617585,14.0250261 C78.5578966,14.0250261 77.8363162,12.8607838 77.8363162,11.6146698 L77.8363162,5.02469767 L76.5457975,5.02469767 L76.5457975,4.48906295 C78.3705632,4.37805058 79.5348053,2.61156615 79.9413881,0.949155815 L80.4936746,0.949155815 L80.4936746,4.48906295 L82.4211267,4.48906295 L82.4211267,5.02469767 L82.4225143,5.02469767 Z" id="path37"></path>
            <path d="M86.9129643,8.60484679 C86.9129643,6.78840679 86.9851223,4.8276507 88.5129299,4.8276507 C89.8728313,4.8276507 89.8728313,6.60384872 89.8728313,8.60484679 L86.9129643,8.60484679 L86.9129643,8.60484679 Z M92.7536021,9.13909385 C92.7536021,6.27497455 91.6629057,4.18932954 88.5837003,4.18932954 C85.657137,4.18932954 84.0308059,6.23889553 84.0308059,9.10440249 C84.0308059,11.987949 85.657137,14.0264137 88.5837003,14.0264137 C90.8969204,14.0264137 92.3331428,12.8441319 92.573207,10.5711535 L91.7572662,10.5614399 C91.7170242,12.0268033 90.7761944,13.4005814 89.1776164,13.4005814 C87.0753199,13.4005814 86.9129643,11.4537019 86.9129643,9.60118287 L86.9129643,9.14048151 L92.7536021,9.14048151 L92.7536021,9.13909385 Z" id="path39"></path>
            <path d="M97.9115139,11.9379934 C97.9115139,12.9495937 98.0932966,13.185495 98.6483584,13.185495 L99.4962153,13.185495 L99.4962153,13.7211297 L93.8873158,13.7211297 L93.8873158,13.185495 L94.513148,13.185495 C95.0654345,13.185495 95.2486049,12.948206 95.2486049,11.9379934 L95.2486049,6.27913752 C95.2486049,5.26614959 95.0654345,5.02469767 94.513148,5.02469767 L93.8873158,5.02469767 L93.8873158,4.49045061 L95.8244815,4.49045061 C96.5058199,4.49045061 97.171894,4.36001107 97.8005015,4.18794188 L97.8005015,6.28468814 L97.8754348,6.28468814 C98.2792423,5.34385825 99.1104474,4.33087032 100.342685,4.33087032 C101.208581,4.33087032 102.18549,4.69998647 102.18549,5.88226827 C102.18549,6.74816481 101.615164,7.20886617 100.639643,7.20886617 C100.196981,7.20886617 99.421282,6.98961672 99.421282,6.02380905 C99.421282,5.67689538 99.421282,5.58253486 99.2034202,5.58253486 C98.6844374,5.58253486 97.9115139,6.78008086 97.9115139,8.75055054 L97.9115139,11.9379934 L97.9115139,11.9379934 Z" id="path41"></path>
            <path d="M106.020967,8.8435234 C106.020967,7.95126143 106.020967,5.10379399 107.41556,5.10379399 C109.159841,5.10379399 109.305545,7.65707863 109.305545,8.9170691 C109.305545,10.1368176 109.288893,13.1174999 107.432211,13.1174999 C106.020967,13.1174999 106.020967,9.74827427 106.020967,8.8435234 M109.473451,13.7225173 L113.347783,13.7225173 L113.347783,13.185495 L112.759417,13.185495 C112.280676,13.185495 112.02396,13.02869 112.02396,11.9171786 L112.02396,-1.0658141e-14 L108.060819,-1.0658141e-14 L108.060819,0.537022369 L108.629757,0.537022369 C109.327747,0.537022369 109.361051,0.864508878 109.361051,1.76648443 L109.361051,5.6977102 L109.327747,5.6977102 C108.758809,4.66807041 107.895688,4.18932954 106.718957,4.18932954 C104.029683,4.18932954 103.144359,6.76759197 103.144359,9.13215558 C103.144359,11.3787685 104.103228,14.0236384 106.68149,14.0236384 C107.969234,14.0236384 109.016913,13.5740383 109.440147,12.3903688 L109.473451,12.3903688 L109.473451,13.7225173 Z" id="path43"></path>
            <path d="M119.866983,11.21225 C119.866983,12.8025023 118.912277,13.1188875 118.433536,13.1188875 C117.494094,13.1188875 117.161057,12.2654799 117.161057,11.43705 C117.161057,9.79406687 117.825744,8.80050611 119.316085,8.80050611 C119.481215,8.80050611 119.628307,8.81993327 119.866983,8.87682712 L119.866983,11.21225 Z M123.580347,11.1775586 C123.580347,12.0212527 123.580347,12.9912233 122.990594,12.9912233 C122.692248,12.9912233 122.527117,12.7941763 122.527117,12.3001713 L122.527117,6.79812038 C122.527117,4.64586794 120.51363,4.18932954 118.748534,4.18932954 C117.446914,4.18932954 115.03517,4.57232224 115.03517,6.31521654 C115.03517,7.15058467 115.587457,7.68899469 116.417274,7.68899469 C117.136079,7.68899469 117.799378,7.22274271 117.799378,6.44565608 C117.799378,5.92389791 117.392795,5.58947313 117.392795,5.38410024 C117.392795,4.90258406 118.235102,4.82903836 118.638909,4.82903836 C119.610267,4.82903836 119.865596,5.51592743 119.865596,6.33741901 L119.865596,8.28568621 C119.593615,8.26625905 119.335512,8.26625905 119.059368,8.26625905 C117.051432,8.26625905 114.398237,9.07664939 114.398237,11.4509266 C114.398237,13.145253 115.708183,14.0208631 117.290109,14.0208631 C118.303097,14.0208631 119.445136,13.7058655 119.979383,12.7941763 C120.291606,13.6461963 121.25325,14.0208631 121.990095,14.0208631 C124.257522,14.0208631 124.274174,12.4000824 124.274174,11.1775586 L123.580347,11.1775586 L123.580347,11.1775586 Z" id="path45"></path>
            <path d="M124.941636,13.1868826 L125.564693,13.1868826 C126.12253,13.1868826 126.302925,12.9495937 126.302925,11.939381 L126.302925,6.28052517 C126.302925,5.26476193 126.12253,5.02608532 125.564693,5.02608532 L124.941636,5.02608532 L124.941636,4.49045061 L126.877414,4.49045061 C127.56014,4.49045061 128.227602,4.36139872 128.854822,4.18932954 L128.854822,5.82259912 L128.890901,5.82259912 C129.627745,4.77908279 130.511681,4.18932954 131.868807,4.18932954 C133.126022,4.18932954 134.0502,4.64864324 134.399889,5.82259912 C135.19224,4.68472227 135.944348,4.18932954 137.473544,4.18932954 C139.281657,4.18932954 140.169756,5.2689249 140.169756,6.80367099 L140.169756,11.939381 C140.169756,12.9509813 140.358477,13.1868826 140.906601,13.1868826 L141.313184,13.1868826 L141.313184,13.7252926 L136.367583,13.7252926 L136.367583,13.1868826 L136.774166,13.1868826 C137.329228,13.1868826 137.512398,12.9495937 137.512398,11.939381 L137.512398,7.28379952 C137.512398,6.37904866 137.512398,5.32443108 136.334279,5.32443108 C134.56502,5.32443108 134.56502,7.35734522 134.56502,8.503548 L134.56502,11.9407687 C134.56502,12.952369 134.749578,13.1882703 135.303252,13.1882703 L135.705672,13.1882703 L135.705672,13.7266803 L130.767009,13.7266803 L130.767009,13.1882703 L131.169429,13.1882703 C131.720328,13.1882703 131.907661,12.9509813 131.907661,11.9407687 L131.907661,7.28518717 C131.907661,6.38043631 131.907661,5.32581874 130.728155,5.32581874 C128.961671,5.32581874 128.961671,7.35873287 128.961671,8.51326158 L128.961671,11.9421563 C128.961671,12.9537566 129.143454,13.1896579 129.698515,13.1896579 L130.102323,13.1896579 L130.102323,13.7280679 L124.938861,13.7280679 L124.938861,13.1868826 L124.941636,13.1868826 Z" id="path47"></path>
        </g>
        <g id="g49" transform="translate(181.000000, 22.000000)" fill="#231F20" fill-rule="nonzero">
            <g id="g51" transform="translate(1.387097, 0.000000)">
                <path d="M20.9229677,10.2536 C26.6114516,10.2536 31.9281935,11.7992 36.5028387,14.497 L41.3881935,6.0662 C35.3820645,2.5102 28.3897097,0.483 20.9229677,0.483 C13.4631613,0.483 6.47912903,2.5102 0.471612903,6.0662 L5.35558065,14.497 C9.933,11.7992 15.2566774,10.2536 20.9229677,10.2536 Z" id="path53"></path>
            </g>
            <g id="g55" transform="translate(0.000000, 12.600000)">
                <path d="M26.8264516,2.2918 C24.8429032,2.2708 18.8256774,2.1532 11.0898387,5.7624 C10.1036129,6.2244 9.40590323,6.6094 9.23806452,6.3644 C8.90516129,5.831 11.3644839,3.7226 14.0027419,2.1812 C14.9570645,1.6086 15.5021935,1.1088 15.2885806,0.6832 C14.9709355,0.063 13.0803226,-0.0644 7.80519355,2.66 C5.10312903,4.1818 2.65906452,6.1278 0.567322581,8.393 L1.42732258,9.2134 C2.27483871,8.3076 3.18893548,7.469 4.12106452,6.6472 C4.74387097,6.1026 7.62764516,3.927 7.88009677,4.5836 C7.97719355,4.8468 7.79270968,5.2304 6.77180645,6.6388 C5.88129032,7.8848 5.29593548,9.0496 5.7176129,9.4052 C6.13790323,9.765 6.64558065,9.5606 7.84819355,8.8914 C8.74009677,8.3944 11.5697742,6.881 16.0306774,5.5272 C20.4915806,4.1832 21.5762903,4.6942 21.6844839,5.0232 C21.8204194,5.4656 19.766129,6.1992 18.5551935,6.8054 C17.5412258,7.329 13.9625161,9.4514 12.0205806,11.0306 C12.0205806,11.0306 13.902871,14.2912 13.9111935,14.2912 C15.9141613,13.1012 23.5459677,11.1524 24.3615806,12.5608 C25.2562581,14.1064 17.1348065,19.8674 17.1348065,19.8674 L22.3100645,28.8442 C22.3100645,28.8442 34.085129,15.1942 32.2083871,12.1996 C30.315,9.2204 23.2269355,9.772 20.4305484,10.0394 C19.6620968,10.108 18.7604839,10.2774 18.5704516,9.8938 C18.3596129,9.4696 18.6023548,7.7644 28.0526452,5.5048 C30.1540968,5.0078 30.9724839,4.7474 30.8573548,3.8094 C30.7602581,3.0044 28.8113871,2.3058 26.8264516,2.2918 Z" id="path57"></path>
            </g>
        </g>
        <text id="CMD" font-family="OpenSans-Bold, Open Sans" font-size="36" font-weight="bold" fill="#000000">
            <tspan x="42" y="56">CMD</tspan>
        </text>
        <line x1="153.5" y1="22.5" x2="153.5" y2="63.5" id="Line" stroke="#231F20" stroke-linecap="square"></line>
    </g>
</svg>